<?xml version="1.0" standalone="no"?>
<!DOCTYPE svg PUBLIC "-//W3C//DTD SVG 20010904//EN"
 "http://www.w3.org/TR/2001/REC-SVG-20010904/DTD/svg10.dtd">
<svg version="1.0" xmlns="http://www.w3.org/2000/svg"
 width="624.000000pt" height="215.000000pt" viewBox="0 0 624.000000 215.000000"
 preserveAspectRatio="xMidYMid meet">

<g transform="translate(0.000000,215.000000) scale(0.100000,-0.100000)"
fill="#000000" stroke="none">
<path d="M2260 1075 c0 -857 3 -1076 13 -1073 9 4 12 227 12 1073 0 846 -3
1069 -12 1073 -10 3 -13 -216 -13 -1073z"/>
<path d="M705 2081 c-297 -103 -517 -296 -623 -546 -49 -117 -72 -223 -79
-367 -17 -355 92 -653 314 -859 212 -196 541 -300 850 -269 59 6 110 13 114
15 5 4 -8 94 -16 103 -1 1 -46 -2 -100 -8 -192 -20 -400 17 -570 100 -116 56
-203 124 -281 218 -58 70 -142 230 -168 318 l-14 52 65 16 c36 9 67 16 68 14
2 -2 15 -34 30 -73 32 -86 76 -165 124 -223 90 -109 279 -227 431 -269 91 -25
338 -25 430 1 82 22 198 83 272 141 213 167 350 511 308 772 -25 158 -94 302
-198 414 l-55 60 -34 -32 c-18 -18 -33 -37 -33 -42 0 -5 23 -34 51 -65 64 -72
132 -208 154 -308 20 -89 16 -223 -9 -319 -39 -145 -142 -310 -243 -390 -134
-104 -252 -145 -428 -145 -164 0 -302 42 -431 131 -212 146 -332 450 -280 709
39 192 191 402 354 488 35 18 147 53 292 91 129 34 245 64 257 67 l23 6 -27
-58 -26 -58 82 -360 c45 -199 81 -373 81 -387 0 -52 -68 -109 -129 -109 -56 0
-95 71 -89 161 l3 42 -160 109 c-87 60 -163 114 -167 121 -11 17 -10 85 2 107
9 16 3 24 -34 49 -50 35 -57 32 -76 -38 -13 -48 -7 -128 13 -173 8 -18 61 -61
157 -125 l144 -98 17 -74 c29 -126 94 -191 192 -191 89 0 171 51 212 133 14
28 25 67 25 86 0 20 -36 193 -80 385 l-80 350 65 139 c36 77 64 142 61 144 -8
8 -744 -190 -790 -213 -165 -82 -351 -303 -406 -481 -28 -89 -42 -216 -35
-297 l7 -71 -58 -13 c-46 -9 -60 -9 -67 1 -16 24 -1 316 22 402 46 177 157
346 296 452 83 63 213 132 310 163 39 13 71 23 72 24 2 2 -28 106 -30 105 -1
0 -38 -13 -82 -28z"/>
<path d="M3128 1571 c-86 -28 -133 -112 -126 -222 7 -89 38 -144 100 -178 26
-14 57 -39 69 -55 28 -35 92 -65 141 -66 56 0 67 7 59 38 -6 23 -12 27 -38 24
-33 -4 -103 21 -103 36 0 5 14 15 31 22 66 28 104 115 97 221 -8 112 -62 173
-160 184 -24 2 -55 0 -70 -4z m108 -79 c34 -27 45 -58 45 -127 0 -87 -27 -138
-81 -150 -40 -9 -88 19 -106 60 -16 39 -19 132 -5 168 24 62 100 88 147 49z"/>
<path d="M4275 1573 c-51 -14 -95 -66 -95 -113 0 -47 30 -81 98 -112 82 -38
102 -54 102 -84 0 -46 -80 -59 -139 -23 -34 20 -34 20 -54 1 -26 -26 -18 -45
28 -67 144 -68 293 32 230 155 -10 20 -35 38 -82 59 -38 17 -75 35 -83 40 -19
11 -25 48 -10 67 16 19 73 18 111 -2 29 -14 32 -14 45 3 7 10 14 23 14 28 1
29 -114 62 -165 48z"/>
<path d="M2680 1365 l0 -205 130 0 130 0 0 30 0 30 -90 0 -90 0 0 60 0 60 70
0 70 0 0 30 0 30 -70 0 -70 0 0 55 0 55 85 0 85 0 0 30 0 30 -125 0 -125 0 0
-205z"/>
<path d="M3440 1423 c1 -211 26 -258 142 -269 71 -7 115 16 146 76 20 40 22
59 22 192 l0 148 -35 0 -35 0 0 -134 c0 -180 -15 -216 -87 -216 -67 0 -82 43
-83 228 l0 122 -35 0 -35 0 0 -147z"/>
<path d="M3850 1365 l0 -205 130 0 130 0 0 30 0 30 -90 0 -90 0 0 60 0 60 70
0 70 0 0 30 0 30 -70 0 -70 0 0 55 0 55 85 0 85 0 0 30 0 30 -125 0 -125 0 0
-205z"/>
<path d="M4480 1540 c0 -30 1 -30 55 -30 l55 0 0 -175 0 -175 40 0 40 0 0 175
0 175 60 0 60 0 0 30 0 30 -155 0 -155 0 0 -30z"/>
<path d="M4860 1365 l0 -205 40 0 40 0 0 80 0 80 28 0 c25 0 33 -9 71 -80 42
-79 43 -80 82 -80 21 0 39 3 39 8 0 4 -20 40 -44 81 l-43 75 38 36 c34 32 39
43 39 81 0 61 -29 105 -77 118 -21 6 -77 11 -125 11 l-88 0 0 -205z m206 120
c20 -28 17 -53 -11 -80 -18 -19 -35 -25 -70 -25 l-45 0 0 66 0 66 56 -4 c40
-3 61 -10 70 -23z"/>
<path d="M5230 1365 l0 -205 40 0 40 0 0 205 0 205 -40 0 -40 0 0 -205z"/>
<path d="M5422 1388 c-33 -101 -63 -193 -66 -205 -7 -21 -4 -23 32 -23 l39 0
13 55 13 55 68 0 68 0 16 -55 c16 -55 16 -55 57 -55 31 0 39 3 34 15 -3 8 -33
100 -66 205 l-61 190 -44 0 -44 0 -59 -182z m127 29 c11 -42 21 -79 21 -82 0
-3 -22 -5 -49 -5 l-49 0 14 48 c8 26 19 64 25 86 6 21 12 36 14 35 1 -2 12
-39 24 -82z"/>
<path d="M5750 1365 l0 -205 36 0 35 0 -3 150 c-2 83 -2 150 -2 150 1 0 39
-67 84 -150 l82 -150 39 0 39 0 0 205 0 205 -35 0 -35 0 0 -147 0 -148 -81
148 -81 147 -39 0 -39 0 0 -205z"/>
<path d="M1050 1527 c0 -9 150 -100 156 -94 3 3 0 23 -6 46 -10 39 -13 41 -49
41 -21 0 -53 3 -70 6 -17 4 -31 4 -31 1z"/>
<path d="M2788 821 c-85 -28 -133 -112 -126 -221 3 -38 14 -82 26 -106 40 -78
133 -112 217 -79 81 30 121 111 113 226 -8 112 -62 173 -160 184 -24 2 -55 0
-70 -4z m108 -79 c33 -26 45 -58 45 -120 1 -100 -33 -152 -99 -152 -42 0 -77
25 -93 67 -12 31 -12 125 0 156 24 62 100 88 147 49z"/>
<path d="M3575 815 c-48 -17 -101 -74 -115 -124 -15 -55 -11 -132 9 -176 46
-102 169 -143 271 -90 l30 16 0 94 0 95 -70 0 -70 0 0 -30 c0 -28 2 -30 40
-30 l40 0 0 -44 c0 -49 -9 -56 -69 -56 -71 0 -111 53 -111 147 0 95 42 143
123 143 18 0 43 -7 55 -16 21 -15 24 -14 42 8 19 23 19 23 -1 40 -22 19 -81
38 -114 38 -11 -1 -38 -7 -60 -15z"/>
<path d="M4875 823 c-51 -14 -95 -66 -95 -113 0 -47 30 -81 98 -112 82 -38
102 -54 102 -84 0 -46 -80 -59 -139 -23 -34 20 -34 20 -54 1 -26 -26 -18 -45
28 -67 144 -68 293 32 230 155 -10 20 -35 38 -82 59 -38 17 -75 35 -83 40 -19
11 -25 48 -10 67 16 19 73 18 111 -2 29 -14 32 -14 45 3 7 10 14 23 14 28 1
29 -114 62 -165 48z"/>
<path d="M5915 823 c-51 -14 -95 -66 -95 -113 0 -47 30 -81 98 -112 82 -38
102 -54 102 -84 0 -46 -80 -59 -139 -23 -34 20 -34 20 -54 1 -26 -26 -18 -45
28 -67 144 -68 293 32 230 155 -10 20 -35 38 -82 59 -38 17 -75 35 -83 40 -19
11 -25 48 -10 67 16 19 73 18 111 -2 29 -14 32 -14 45 3 7 10 14 23 14 28 1
29 -114 62 -165 48z"/>
<path d="M3100 615 l0 -205 40 0 40 0 0 80 0 80 28 0 c25 0 33 -9 71 -80 42
-79 43 -80 82 -80 21 0 39 3 39 8 0 4 -20 40 -44 81 l-43 75 38 36 c34 32 39
43 39 81 0 61 -29 105 -77 118 -21 6 -77 11 -125 11 l-88 0 0 -205z m206 120
c20 -28 17 -53 -11 -80 -18 -19 -35 -25 -70 -25 l-45 0 0 66 0 66 56 -4 c40
-3 61 -10 70 -23z"/>
<path d="M3882 638 c-33 -101 -63 -193 -66 -205 -7 -21 -4 -23 32 -23 l39 0
13 55 13 55 68 0 68 0 16 -55 c16 -55 16 -55 57 -55 31 0 39 3 34 15 -3 8 -33
100 -66 205 l-61 190 -44 0 -44 0 -59 -182z m127 29 c11 -42 21 -79 21 -82 0
-3 -22 -5 -49 -5 l-49 0 14 48 c8 26 19 64 25 86 6 21 12 36 14 35 1 -2 12
-39 24 -82z"/>
<path d="M4210 615 l0 -205 36 0 35 0 -3 150 c-2 83 -2 150 -2 150 1 0 39 -67
84 -150 l82 -150 39 0 39 0 0 205 0 205 -35 0 -35 0 0 -147 0 -148 -81 148
-81 147 -39 0 -39 0 0 -205z"/>
<path d="M4620 615 l0 -205 40 0 40 0 0 205 0 205 -40 0 -40 0 0 -205z"/>
<path d="M5130 615 l0 -205 130 0 130 0 0 30 0 30 -90 0 -90 0 0 60 0 60 70 0
70 0 0 30 0 30 -70 0 -70 0 0 55 0 55 85 0 85 0 0 30 0 30 -125 0 -125 0 0
-205z"/>
<path d="M5470 615 l0 -205 40 0 40 0 0 80 0 80 28 0 c25 0 33 -9 71 -80 42
-79 43 -80 82 -80 21 0 39 3 39 8 0 4 -20 40 -44 81 l-43 75 38 36 c34 32 39
43 39 81 0 61 -29 105 -77 118 -21 6 -77 11 -125 11 l-88 0 0 -205z m206 120
c20 -28 17 -53 -11 -80 -18 -19 -35 -25 -70 -25 l-45 0 0 66 0 66 56 -4 c40
-3 61 -10 70 -23z"/>
</g>
</svg>
